<svg width="135" height="45" viewBox="0 0 135 45" fill="none" xmlns="http://www.w3.org/2000/svg">
<rect width="135" height="45" rx="8" fill="#D1F3D1"/>
<path d="M41.017 28H38.3807L42.3977 16.3636H45.5682L49.5795 28H46.9432L44.0284 19.0227H43.9375L41.017 28ZM40.8523 23.4261H47.0795V25.3466H40.8523V23.4261ZM54.7916 28.1705C53.8977 28.1705 53.1287 27.9811 52.4848 27.6023C51.8446 27.2197 51.3522 26.6894 51.0075 26.0114C50.6666 25.3333 50.4961 24.553 50.4961 23.6705C50.4961 22.7765 50.6685 21.9924 51.0132 21.3182C51.3617 20.6402 51.856 20.1117 52.4961 19.733C53.1363 19.3504 53.8977 19.1591 54.7802 19.1591C55.5416 19.1591 56.2083 19.2973 56.7802 19.5739C57.3522 19.8504 57.8048 20.2386 58.1382 20.7386C58.4715 21.2386 58.6552 21.8258 58.6893 22.5H56.4052C56.3408 22.0644 56.1704 21.714 55.8939 21.4489C55.6211 21.1799 55.2632 21.0455 54.82 21.0455C54.445 21.0455 54.1173 21.1477 53.837 21.3523C53.5605 21.553 53.3446 21.8466 53.1893 22.233C53.034 22.6193 52.9564 23.0871 52.9564 23.6364C52.9564 24.1932 53.0321 24.6667 53.1836 25.0568C53.3389 25.447 53.5567 25.7443 53.837 25.9489C54.1173 26.1534 54.445 26.2557 54.82 26.2557C55.0965 26.2557 55.3446 26.1989 55.5643 26.0852C55.7878 25.9716 55.9715 25.8068 56.1155 25.5909C56.2632 25.3712 56.3598 25.108 56.4052 24.8011H58.6893C58.6514 25.4678 58.4696 26.0549 58.1439 26.5625C57.8219 27.0663 57.3768 27.4602 56.8086 27.7443C56.2405 28.0284 55.5681 28.1705 54.7916 28.1705ZM64.5022 28.1705C63.6083 28.1705 62.8393 27.9811 62.1954 27.6023C61.5552 27.2197 61.0628 26.6894 60.7181 26.0114C60.3772 25.3333 60.2068 24.553 60.2068 23.6705C60.2068 22.7765 60.3791 21.9924 60.7238 21.3182C61.0723 20.6402 61.5666 20.1117 62.2068 19.733C62.8469 19.3504 63.6083 19.1591 64.4909 19.1591C65.2522 19.1591 65.9189 19.2973 66.4909 19.5739C67.0628 19.8504 67.5155 20.2386 67.8488 20.7386C68.1821 21.2386 68.3659 21.8258 68.3999 22.5H66.1159C66.0515 22.0644 65.881 21.714 65.6045 21.4489C65.3318 21.1799 64.9738 21.0455 64.5306 21.0455C64.1556 21.0455 63.828 21.1477 63.5477 21.3523C63.2712 21.553 63.0552 21.8466 62.8999 22.233C62.7446 22.6193 62.667 23.0871 62.667 23.6364C62.667 24.1932 62.7427 24.6667 62.8943 25.0568C63.0496 25.447 63.2674 25.7443 63.5477 25.9489C63.828 26.1534 64.1556 26.2557 64.5306 26.2557C64.8071 26.2557 65.0552 26.1989 65.2749 26.0852C65.4984 25.9716 65.6821 25.8068 65.8261 25.5909C65.9738 25.3712 66.0704 25.108 66.1159 24.8011H68.3999C68.3621 25.4678 68.1802 26.0549 67.8545 26.5625C67.5325 27.0663 67.0874 27.4602 66.5193 27.7443C65.9511 28.0284 65.2787 28.1705 64.5022 28.1705ZM74.2469 28.1705C73.3492 28.1705 72.5765 27.9886 71.9287 27.625C71.2848 27.2576 70.7886 26.7386 70.4401 26.0682C70.0916 25.3939 69.9174 24.5966 69.9174 23.6761C69.9174 22.7784 70.0916 21.9905 70.4401 21.3125C70.7886 20.6345 71.2791 20.1061 71.9117 19.7273C72.5481 19.3485 73.2943 19.1591 74.1503 19.1591C74.7261 19.1591 75.2621 19.2519 75.7583 19.4375C76.2583 19.6193 76.6939 19.8939 77.0651 20.2614C77.4401 20.6288 77.7318 21.0909 77.9401 21.6477C78.1484 22.2008 78.2526 22.8485 78.2526 23.5909V24.2557H70.8833V22.7557H75.9742C75.9742 22.4072 75.8984 22.0985 75.7469 21.8295C75.5954 21.5606 75.3852 21.3504 75.1162 21.1989C74.8511 21.0436 74.5424 20.9659 74.1901 20.9659C73.8227 20.9659 73.4969 21.0511 73.2128 21.2216C72.9325 21.3883 72.7128 21.6136 72.5537 21.8977C72.3947 22.178 72.3132 22.4905 72.3094 22.8352V24.2614C72.3094 24.6932 72.389 25.0663 72.5481 25.3807C72.7109 25.6951 72.9401 25.9375 73.2356 26.108C73.531 26.2784 73.8814 26.3636 74.2867 26.3636C74.5556 26.3636 74.8019 26.3258 75.0253 26.25C75.2488 26.1742 75.4401 26.0606 75.5992 25.9091C75.7583 25.7576 75.8795 25.572 75.9628 25.3523L78.2015 25.5C78.0878 26.0379 77.8549 26.5076 77.5026 26.9091C77.1541 27.3068 76.7034 27.6174 76.1503 27.8409C75.6011 28.0606 74.9666 28.1705 74.2469 28.1705ZM80.1522 31.2727V19.2727H82.5385V20.7386H82.6465C82.7525 20.5038 82.9059 20.2652 83.1067 20.0227C83.3112 19.7765 83.5764 19.572 83.9022 19.4091C84.2317 19.2424 84.6408 19.1591 85.1294 19.1591C85.7658 19.1591 86.3529 19.3258 86.8908 19.6591C87.4287 19.9886 87.8586 20.4867 88.1806 21.1534C88.5025 21.8163 88.6635 22.6477 88.6635 23.6477C88.6635 24.6212 88.5063 25.4432 88.1919 26.1136C87.8813 26.7803 87.4571 27.286 86.9192 27.6307C86.3851 27.9716 85.7866 28.142 85.1237 28.142C84.6541 28.142 84.2544 28.0644 83.9249 27.9091C83.5991 27.7538 83.3321 27.5587 83.1237 27.3239C82.9154 27.0852 82.7563 26.8447 82.6465 26.6023H82.5726V31.2727H80.1522ZM82.5215 23.6364C82.5215 24.1553 82.5934 24.608 82.7374 24.9943C82.8813 25.3807 83.0897 25.6818 83.3624 25.8977C83.6351 26.1098 83.9666 26.2159 84.3567 26.2159C84.7506 26.2159 85.084 26.108 85.3567 25.892C85.6294 25.6723 85.8359 25.3693 85.976 24.983C86.12 24.5928 86.1919 24.1439 86.1919 23.6364C86.1919 23.1326 86.1219 22.6894 85.9817 22.3068C85.8416 21.9242 85.6351 21.625 85.3624 21.4091C85.0897 21.1932 84.7544 21.0852 84.3567 21.0852C83.9628 21.0852 83.6294 21.1894 83.3567 21.3977C83.0878 21.6061 82.8813 21.9015 82.7374 22.2841C82.5934 22.6667 82.5215 23.1174 82.5215 23.6364ZM95.2392 19.2727V21.0909H89.9835V19.2727H95.2392ZM91.1767 17.1818H93.5972V25.3182C93.5972 25.5417 93.6312 25.7159 93.6994 25.8409C93.7676 25.9621 93.8623 26.0473 93.9835 26.0966C94.1085 26.1458 94.2525 26.1705 94.4153 26.1705C94.529 26.1705 94.6426 26.161 94.7562 26.142C94.8699 26.1193 94.957 26.1023 95.0176 26.0909L95.3983 27.892C95.2771 27.9299 95.1066 27.9735 94.8869 28.0227C94.6672 28.0758 94.4002 28.108 94.0858 28.1193C93.5025 28.142 92.9911 28.0644 92.5517 27.8864C92.1161 27.7083 91.7771 27.4318 91.5347 27.0568C91.2922 26.6818 91.1729 26.2083 91.1767 25.6364V17.1818Z" fill="#145B14"/>
</svg>
