<svg width="135" height="45" viewBox="0 0 135 45" fill="none" xmlns="http://www.w3.org/2000/svg">
<rect width="135" height="45" rx="8" fill="#FFC1C1"/>
<path d="M42.1364 28H38.0114V16.3636H42.1705C43.3409 16.3636 44.3485 16.5966 45.1932 17.0625C46.0379 17.5246 46.6875 18.1894 47.142 19.0568C47.6004 19.9242 47.8295 20.9621 47.8295 22.1705C47.8295 23.3826 47.6004 24.4242 47.142 25.2955C46.6875 26.1667 46.0341 26.8352 45.1818 27.3011C44.3333 27.767 43.3182 28 42.1364 28ZM40.4716 25.892H42.0341C42.7614 25.892 43.3731 25.7633 43.8693 25.5057C44.3693 25.2443 44.7443 24.8409 44.9943 24.2955C45.2481 23.7462 45.375 23.0379 45.375 22.1705C45.375 21.3106 45.2481 20.608 44.9943 20.0625C44.7443 19.517 44.3712 19.1155 43.875 18.858C43.3788 18.6004 42.767 18.4716 42.0398 18.4716H40.4716V25.892ZM53.9038 28.1705C53.0061 28.1705 52.2334 27.9886 51.5856 27.625C50.9417 27.2576 50.4455 26.7386 50.097 26.0682C49.7485 25.3939 49.5743 24.5966 49.5743 23.6761C49.5743 22.7784 49.7485 21.9905 50.097 21.3125C50.4455 20.6345 50.936 20.1061 51.5686 19.7273C52.2049 19.3485 52.9512 19.1591 53.8072 19.1591C54.383 19.1591 54.919 19.2519 55.4152 19.4375C55.9152 19.6193 56.3508 19.8939 56.722 20.2614C57.097 20.6288 57.3887 21.0909 57.597 21.6477C57.8053 22.2008 57.9095 22.8485 57.9095 23.5909V24.2557H50.5402V22.7557H55.6311C55.6311 22.4072 55.5553 22.0985 55.4038 21.8295C55.2523 21.5606 55.0421 21.3504 54.7731 21.1989C54.508 21.0436 54.1993 20.9659 53.847 20.9659C53.4796 20.9659 53.1538 21.0511 52.8697 21.2216C52.5894 21.3883 52.3697 21.6136 52.2106 21.8977C52.0515 22.178 51.9701 22.4905 51.9663 22.8352V24.2614C51.9663 24.6932 52.0459 25.0663 52.2049 25.3807C52.3678 25.6951 52.597 25.9375 52.8924 26.108C53.1879 26.2784 53.5383 26.3636 53.9436 26.3636C54.2125 26.3636 54.4587 26.3258 54.6822 26.25C54.9057 26.1742 55.097 26.0606 55.2561 25.9091C55.4152 25.7576 55.5364 25.572 55.6197 25.3523L57.8584 25.5C57.7447 26.0379 57.5118 26.5076 57.1595 26.9091C56.811 27.3068 56.3602 27.6174 55.8072 27.8409C55.258 28.0606 54.6235 28.1705 53.9038 28.1705ZM63.7522 28.1705C62.8583 28.1705 62.0893 27.9811 61.4454 27.6023C60.8052 27.2197 60.3128 26.6894 59.9681 26.0114C59.6272 25.3333 59.4568 24.553 59.4568 23.6705C59.4568 22.7765 59.6291 21.9924 59.9738 21.3182C60.3223 20.6402 60.8166 20.1117 61.4568 19.733C62.0969 19.3504 62.8583 19.1591 63.7409 19.1591C64.5022 19.1591 65.1689 19.2973 65.7409 19.5739C66.3128 19.8504 66.7655 20.2386 67.0988 20.7386C67.4321 21.2386 67.6159 21.8258 67.6499 22.5H65.3659C65.3015 22.0644 65.131 21.714 64.8545 21.4489C64.5818 21.1799 64.2238 21.0455 63.7806 21.0455C63.4056 21.0455 63.078 21.1477 62.7977 21.3523C62.5212 21.553 62.3052 21.8466 62.1499 22.233C61.9946 22.6193 61.917 23.0871 61.917 23.6364C61.917 24.1932 61.9927 24.6667 62.1443 25.0568C62.2996 25.447 62.5174 25.7443 62.7977 25.9489C63.078 26.1534 63.4056 26.2557 63.7806 26.2557C64.0571 26.2557 64.3052 26.1989 64.5249 26.0852C64.7484 25.9716 64.9321 25.8068 65.0761 25.5909C65.2238 25.3712 65.3204 25.108 65.3659 24.8011H67.6499C67.6121 25.4678 67.4302 26.0549 67.1045 26.5625C66.7825 27.0663 66.3374 27.4602 65.7693 27.7443C65.2011 28.0284 64.5287 28.1705 63.7522 28.1705ZM71.9401 16.3636V28H69.5197V16.3636H71.9401ZM74.199 28V19.2727H76.6195V28H74.199ZM75.4149 18.1477C75.0551 18.1477 74.7464 18.0284 74.4888 17.7898C74.235 17.5473 74.1081 17.2576 74.1081 16.9205C74.1081 16.5871 74.235 16.3011 74.4888 16.0625C74.7464 15.8201 75.0551 15.6989 75.4149 15.6989C75.7748 15.6989 76.0816 15.8201 76.3354 16.0625C76.593 16.3011 76.7218 16.5871 76.7218 16.9205C76.7218 17.2576 76.593 17.5473 76.3354 17.7898C76.0816 18.0284 75.7748 18.1477 75.4149 18.1477ZM81.2989 22.9545V28H78.8784V19.2727H81.1852V20.8125H81.2875C81.4807 20.3049 81.8045 19.9034 82.2591 19.608C82.7136 19.3087 83.2648 19.1591 83.9125 19.1591C84.5186 19.1591 85.047 19.2917 85.4977 19.5568C85.9485 19.822 86.2989 20.2008 86.5489 20.6932C86.7989 21.1818 86.9239 21.7652 86.9239 22.4432V28H84.5034V22.875C84.5072 22.3409 84.3708 21.9242 84.0943 21.625C83.8178 21.322 83.4371 21.1705 82.9523 21.1705C82.6265 21.1705 82.3386 21.2405 82.0886 21.3807C81.8424 21.5208 81.6492 21.7254 81.5091 21.9943C81.3727 22.2595 81.3027 22.5795 81.2989 22.9545ZM93.1288 28.1705C92.2311 28.1705 91.4584 27.9886 90.8106 27.625C90.1667 27.2576 89.6705 26.7386 89.322 26.0682C88.9735 25.3939 88.7993 24.5966 88.7993 23.6761C88.7993 22.7784 88.9735 21.9905 89.322 21.3125C89.6705 20.6345 90.161 20.1061 90.7936 19.7273C91.4299 19.3485 92.1762 19.1591 93.0322 19.1591C93.608 19.1591 94.144 19.2519 94.6402 19.4375C95.1402 19.6193 95.5758 19.8939 95.947 20.2614C96.322 20.6288 96.6137 21.0909 96.822 21.6477C97.0303 22.2008 97.1345 22.8485 97.1345 23.5909V24.2557H89.7652V22.7557H94.8561C94.8561 22.4072 94.7803 22.0985 94.6288 21.8295C94.4773 21.5606 94.2671 21.3504 93.9981 21.1989C93.733 21.0436 93.4243 20.9659 93.072 20.9659C92.7046 20.9659 92.3788 21.0511 92.0947 21.2216C91.8144 21.3883 91.5947 21.6136 91.4356 21.8977C91.2765 22.178 91.1951 22.4905 91.1913 22.8352V24.2614C91.1913 24.6932 91.2709 25.0663 91.4299 25.3807C91.5928 25.6951 91.822 25.9375 92.1174 26.108C92.4129 26.2784 92.7633 26.3636 93.1686 26.3636C93.4375 26.3636 93.6837 26.3258 93.9072 26.25C94.1307 26.1742 94.322 26.0606 94.4811 25.9091C94.6402 25.7576 94.7614 25.572 94.8447 25.3523L97.0834 25.5C96.9697 26.0379 96.7368 26.5076 96.3845 26.9091C96.036 27.3068 95.5852 27.6174 95.0322 27.8409C94.483 28.0606 93.8485 28.1705 93.1288 28.1705Z" fill="#D03535"/>
</svg>
