<svg width="135" height="45" viewBox="0 0 135 45" fill="none" xmlns="http://www.w3.org/2000/svg">
<rect width="135" height="45" rx="8" fill="#D1F3D1"/>
<path d="M37.7273 20.125C37.6477 19.8485 37.536 19.6042 37.392 19.392C37.2481 19.1761 37.072 18.9943 36.8636 18.8466C36.6591 18.6951 36.4242 18.5795 36.1591 18.5C35.8977 18.4205 35.608 18.3807 35.2898 18.3807C34.6951 18.3807 34.1723 18.5284 33.7216 18.8239C33.2746 19.1193 32.9261 19.5492 32.6761 20.1136C32.4261 20.6742 32.3011 21.3598 32.3011 22.1705C32.3011 22.9811 32.4242 23.6705 32.6705 24.2386C32.9167 24.8068 33.2652 25.2405 33.7159 25.5398C34.1667 25.8352 34.6989 25.983 35.3125 25.983C35.8693 25.983 36.3447 25.8845 36.7386 25.6875C37.1364 25.4867 37.4394 25.2045 37.6477 24.8409C37.8598 24.4773 37.9659 24.0473 37.9659 23.5511L38.4659 23.625H35.4659V21.7727H40.3352V23.2386C40.3352 24.2614 40.1193 25.1402 39.6875 25.875C39.2557 26.6061 38.661 27.1705 37.9034 27.5682C37.1458 27.9621 36.2784 28.1591 35.3011 28.1591C34.2102 28.1591 33.2519 27.9186 32.4261 27.4375C31.6004 26.9527 30.9564 26.2652 30.4943 25.375C30.036 24.4811 29.8068 23.4205 29.8068 22.1932C29.8068 21.25 29.9432 20.4091 30.2159 19.6705C30.4924 18.928 30.8788 18.2992 31.375 17.7841C31.8712 17.2689 32.4489 16.8769 33.108 16.608C33.767 16.339 34.4811 16.2045 35.25 16.2045C35.9091 16.2045 36.5227 16.3011 37.0909 16.4943C37.6591 16.6837 38.1629 16.9527 38.6023 17.3011C39.0455 17.6496 39.4072 18.0644 39.6875 18.5455C39.9678 19.0227 40.1477 19.5492 40.2273 20.125H37.7273ZM46.401 28.1705C45.5184 28.1705 44.7551 27.983 44.1112 27.608C43.471 27.2292 42.9767 26.7027 42.6282 26.0284C42.2798 25.3504 42.1055 24.5644 42.1055 23.6705C42.1055 22.7689 42.2798 21.9811 42.6282 21.3068C42.9767 20.6288 43.471 20.1023 44.1112 19.7273C44.7551 19.3485 45.5184 19.1591 46.401 19.1591C47.2835 19.1591 48.0449 19.3485 48.6851 19.7273C49.329 20.1023 49.8252 20.6288 50.1737 21.3068C50.5222 21.9811 50.6964 22.7689 50.6964 23.6705C50.6964 24.5644 50.5222 25.3504 50.1737 26.0284C49.8252 26.7027 49.329 27.2292 48.6851 27.608C48.0449 27.983 47.2835 28.1705 46.401 28.1705ZM46.4123 26.2955C46.8138 26.2955 47.1491 26.1818 47.418 25.9545C47.687 25.7235 47.8896 25.4091 48.026 25.0114C48.1661 24.6136 48.2362 24.161 48.2362 23.6534C48.2362 23.1458 48.1661 22.6932 48.026 22.2955C47.8896 21.8977 47.687 21.5833 47.418 21.3523C47.1491 21.1212 46.8138 21.0057 46.4123 21.0057C46.007 21.0057 45.6661 21.1212 45.3896 21.3523C45.1169 21.5833 44.9104 21.8977 44.7703 22.2955C44.6339 22.6932 44.5657 23.1458 44.5657 23.6534C44.5657 24.161 44.6339 24.6136 44.7703 25.0114C44.9104 25.4091 45.1169 25.7235 45.3896 25.9545C45.6661 26.1818 46.007 26.2955 46.4123 26.2955ZM60.5566 28.1705C59.674 28.1705 58.9108 27.983 58.2668 27.608C57.6267 27.2292 57.1323 26.7027 56.7839 26.0284C56.4354 25.3504 56.2611 24.5644 56.2611 23.6705C56.2611 22.7689 56.4354 21.9811 56.7839 21.3068C57.1323 20.6288 57.6267 20.1023 58.2668 19.7273C58.9108 19.3485 59.674 19.1591 60.5566 19.1591C61.4392 19.1591 62.2005 19.3485 62.8407 19.7273C63.4846 20.1023 63.9808 20.6288 64.3293 21.3068C64.6778 21.9811 64.852 22.7689 64.852 23.6705C64.852 24.5644 64.6778 25.3504 64.3293 26.0284C63.9808 26.7027 63.4846 27.2292 62.8407 27.608C62.2005 27.983 61.4392 28.1705 60.5566 28.1705ZM60.568 26.2955C60.9695 26.2955 61.3047 26.1818 61.5736 25.9545C61.8426 25.7235 62.0452 25.4091 62.1816 25.0114C62.3217 24.6136 62.3918 24.161 62.3918 23.6534C62.3918 23.1458 62.3217 22.6932 62.1816 22.2955C62.0452 21.8977 61.8426 21.5833 61.5736 21.3523C61.3047 21.1212 60.9695 21.0057 60.568 21.0057C60.1627 21.0057 59.8217 21.1212 59.5452 21.3523C59.2725 21.5833 59.0661 21.8977 58.9259 22.2955C58.7895 22.6932 58.7214 23.1458 58.7214 23.6534C58.7214 24.161 58.7895 24.6136 58.9259 25.0114C59.0661 25.4091 59.2725 25.7235 59.5452 25.9545C59.8217 26.1818 60.1627 26.2955 60.568 26.2955ZM69.1664 22.9545V28H66.7459V19.2727H69.0527V20.8125H69.155C69.3482 20.3049 69.672 19.9034 70.1266 19.608C70.5811 19.3087 71.1323 19.1591 71.78 19.1591C72.3861 19.1591 72.9145 19.2917 73.3652 19.5568C73.816 19.822 74.1664 20.2008 74.4164 20.6932C74.6664 21.1818 74.7914 21.7652 74.7914 22.4432V28H72.3709V22.875C72.3747 22.3409 72.2383 21.9242 71.9618 21.625C71.6853 21.322 71.3046 21.1705 70.8198 21.1705C70.494 21.1705 70.2061 21.2405 69.9561 21.3807C69.7099 21.5208 69.5167 21.7254 69.3766 21.9943C69.2402 22.2595 69.1702 22.5795 69.1664 22.9545ZM79.4395 16.3636V28H77.019V16.3636H79.4395ZM81.6984 28V19.2727H84.1189V28H81.6984ZM82.9143 18.1477C82.5545 18.1477 82.2458 18.0284 81.9882 17.7898C81.7344 17.5473 81.6075 17.2576 81.6075 16.9205C81.6075 16.5871 81.7344 16.3011 81.9882 16.0625C82.2458 15.8201 82.5545 15.6989 82.9143 15.6989C83.2742 15.6989 83.581 15.8201 83.8348 16.0625C84.0923 16.3011 84.2211 16.5871 84.2211 16.9205C84.2211 17.2576 84.0923 17.5473 83.8348 17.7898C83.581 18.0284 83.2742 18.1477 82.9143 18.1477ZM88.7982 22.9545V28H86.3778V19.2727H88.6846V20.8125H88.7869C88.9801 20.3049 89.3039 19.9034 89.7585 19.608C90.213 19.3087 90.7641 19.1591 91.4119 19.1591C92.0179 19.1591 92.5463 19.2917 92.9971 19.5568C93.4479 19.822 93.7982 20.2008 94.0482 20.6932C94.2982 21.1818 94.4232 21.7652 94.4232 22.4432V28H92.0028V22.875C92.0066 22.3409 91.8702 21.9242 91.5937 21.625C91.3172 21.322 90.9365 21.1705 90.4516 21.1705C90.1259 21.1705 89.838 21.2405 89.588 21.3807C89.3418 21.5208 89.1486 21.7254 89.0085 21.9943C88.8721 22.2595 88.802 22.5795 88.7982 22.9545ZM100.628 28.1705C99.7305 28.1705 98.9577 27.9886 98.31 27.625C97.6661 27.2576 97.1698 26.7386 96.8214 26.0682C96.4729 25.3939 96.2986 24.5966 96.2986 23.6761C96.2986 22.7784 96.4729 21.9905 96.8214 21.3125C97.1698 20.6345 97.6604 20.1061 98.293 19.7273C98.9293 19.3485 99.6755 19.1591 100.532 19.1591C101.107 19.1591 101.643 19.2519 102.14 19.4375C102.64 19.6193 103.075 19.8939 103.446 20.2614C103.821 20.6288 104.113 21.0909 104.321 21.6477C104.53 22.2008 104.634 22.8485 104.634 23.5909V24.2557H97.2645V22.7557H102.355C102.355 22.4072 102.28 22.0985 102.128 21.8295C101.977 21.5606 101.766 21.3504 101.497 21.1989C101.232 21.0436 100.924 20.9659 100.571 20.9659C100.204 20.9659 99.8782 21.0511 99.5941 21.2216C99.3138 21.3883 99.0941 21.6136 98.935 21.8977C98.7759 22.178 98.6945 22.4905 98.6907 22.8352V24.2614C98.6907 24.6932 98.7702 25.0663 98.9293 25.3807C99.0922 25.6951 99.3214 25.9375 99.6168 26.108C99.9123 26.2784 100.263 26.3636 100.668 26.3636C100.937 26.3636 101.183 26.3258 101.407 26.25C101.63 26.1742 101.821 26.0606 101.98 25.9091C102.14 25.7576 102.261 25.572 102.344 25.3523L104.583 25.5C104.469 26.0379 104.236 26.5076 103.884 26.9091C103.535 27.3068 103.085 27.6174 102.532 27.8409C101.982 28.0606 101.348 28.1705 100.628 28.1705Z" fill="#145B14"/>
</svg>
